<!--?xml version="1.0" standalone="no"?-->

<svg version="1.0" xmlns="http://www.w3.org/2000/svg" width="300.000000pt" height="300.000000pt" viewBox="0 0 300.000000 300.000000" preserveAspectRatio="xMidYMid meet">
<g transform="translate(0.000000,300.000000) scale(0.100000,-0.100000)" fill="#040404" stroke="none">
<path class="node" id="node1" d="M1023 2974 c-28 -21 -33 -32 -33 -67 0 -47 5 -56 40 -80 32 -22 66
-21 100 3 53 38 51 115 -4 150 -44 26 -64 25 -103 -6z"></path>
<path class="node" id="node2" d="M1873 2979 c-52 -33 -55 -106 -7 -148 29 -25 71 -27 104 -4 35 24 40
33 40 80 0 36 -5 46 -33 67 -41 31 -62 32 -104 5z"></path>
<path class="node" id="node3" d="M1307 2978 c-11 -9 -17 -31 -19 -67 -3 -61 -4 -62 -93 -86 -95 -26
-304 -95 -359 -118 -84 -36 -215 -105 -252 -133 l-34 -26 0 -255 0 -254 38 30
c101 80 384 193 667 267 96 25 128 28 245 28 142 -1 180 -7 372 -63 213 -63
452 -164 535 -227 17 -13 34 -24 37 -24 3 0 6 113 6 250 l0 250 -67 44 c-63
40 -106 62 -223 114 -64 29 -336 116 -422 136 -27 6 -28 9 -28 66 0 48 -4 61
-19 70 -29 15 -363 13 -384 -2z m111 -383 c3 -133 -1 -155 -31 -155 -27 0
-251 -59 -362 -95 -92 -30 -172 -61 -269 -104 -37 -17 -70 -31 -72 -31 -2 0
-4 58 -4 130 l0 129 88 42 c141 67 579 202 632 196 12 -2 16 -23 18 -112z
m276 94 c188 -43 398 -113 549 -182 l77 -36 0 -130 c0 -72 -2 -131 -5 -131 -4
0 -19 7 -35 15 -145 75 -584 215 -672 215 -16 0 -18 13 -18 135 0 74 3 135 6
135 4 0 48 -9 98 -21z"></path>
<path class="node" id="node4" d="M1389 2276 c-2 -3 -50 -15 -104 -27 -134 -28 -400 -117 -519 -173
-122 -57 -225 -125 -262 -173 l-29 -38 -3 -476 -3 -477 31 -26 32 -26 963 0
c685 0 971 3 988 11 14 6 30 22 36 36 8 16 11 169 11 487 l0 463 -35 46 c-66
86 -250 182 -522 273 -214 71 -333 97 -468 102 -61 2 -113 1 -116 -2z m212
-110 c79 -53 100 -163 45 -246 -39 -60 -69 -75 -146 -75 -56 0 -70 4 -102 28
-40 31 -78 98 -78 138 0 74 59 159 124 179 46 14 115 3 157 -24z"></path>
<path class="node" id="node5" d="M660 510 c0 -284 5 -313 55 -346 24 -15 113 -41 207 -58 l36 -7 52
163 c62 194 73 228 95 291 l17 47 389 0 c303 0 391 -3 394 -12 2 -7 38 -120
80 -250 42 -131 78 -238 81 -238 23 0 205 45 227 57 15 7 37 28 47 46 18 30
20 52 20 300 l0 267 -850 0 -850 0 0 -260z"></path>
<path class="node" id="node6" d="M1172 483 c-5 -16 -26 -80 -46 -143 -20 -63 -49 -157 -66 -209 -17
-52 -29 -95 -28 -96 8 -7 386 -35 468 -35 90 0 461 28 469 36 2 2 -5 30 -17
61 -11 32 -41 126 -67 208 -26 83 -52 162 -59 178 l-11 27 -316 0 -317 0 -10
-27z"></path>
</g>
<g transform="translate(0.000000,300.000000) scale(0.100000,-0.100000)" fill="#A1A1A1" stroke="none">

<path class="node" id="node8" d="M1300 2689 c-133 -31 -436 -133 -532 -178 l-88 -42 0 -129 c0 -72 2
-130 4 -130 2 0 35 14 72 31 97 43 177 74 269 104 111 36 335 95 362 95 30 0
34 22 31 155 -2 89 -6 110 -18 112 -8 1 -53 -7 -100 -18z"></path>
<path class="node" id="node9" d="M1590 2575 c0 -122 2 -135 18 -135 88 0 527 -140 672 -215 16 -8 31
-15 35 -15 3 0 5 59 5 131 l0 130 -77 36 c-151 69 -361 139 -549 182 -50 12
-94 21 -98 21 -3 0 -6 -61 -6 -135z"></path>
<path class="node" id="node10" d="M1444 2190 c-65 -20 -124 -105 -124 -179 0 -40 38 -107 78 -138 32
-24 46 -28 102 -28 77 0 107 15 146 75 75 113 7 260 -126 275 -25 2 -59 0 -76
-5z"></path>
</g>
</svg>